<mxfile host="app.diagrams.net" modified="2021-11-04T19:22:57.221Z" agent="5.0 (Windows NT 10.0; Win64; x64) AppleWebKit/537.36 (KHTML, like Gecko) Chrome/94.0.4606.81 Safari/537.36 OPR/80.0.4170.63" etag="--Tc7pr8UTWyHdIDwpCf" version="15.6.8" type="github">
  <diagram id="VuRkDmUXhS8orMsN9DRJ" name="Page-1">
    <mxGraphModel dx="1382" dy="795" grid="1" gridSize="10" guides="1" tooltips="1" connect="1" arrows="1" fold="1" page="1" pageScale="1" pageWidth="827" pageHeight="1169" math="0" shadow="0">
      <root>
        <object label="" id="0">
          <mxCell />
        </object>
        <mxCell id="1" parent="0" />
        <mxCell id="gAx6BKsKjrXT4q-F_Ysd-1" value="USER" style="swimlane;fontStyle=0;childLayout=stackLayout;horizontal=1;startSize=30;horizontalStack=0;resizeParent=1;resizeParentMax=0;resizeLast=0;collapsible=1;marginBottom=0;" parent="1" vertex="1">
          <mxGeometry x="400" y="330" width="140" height="120" as="geometry" />
        </mxCell>
        <mxCell id="gAx6BKsKjrXT4q-F_Ysd-2" value="- UserName : String" style="text;strokeColor=none;fillColor=none;align=left;verticalAlign=middle;spacingLeft=4;spacingRight=4;overflow=hidden;points=[[0,0.5],[1,0.5]];portConstraint=eastwest;rotatable=0;" parent="gAx6BKsKjrXT4q-F_Ysd-1" vertex="1">
          <mxGeometry y="30" width="140" height="30" as="geometry" />
        </mxCell>
        <mxCell id="gAx6BKsKjrXT4q-F_Ysd-3" value="- Email : String" style="text;strokeColor=none;fillColor=none;align=left;verticalAlign=middle;spacingLeft=4;spacingRight=4;overflow=hidden;points=[[0,0.5],[1,0.5]];portConstraint=eastwest;rotatable=0;" parent="gAx6BKsKjrXT4q-F_Ysd-1" vertex="1">
          <mxGeometry y="60" width="140" height="30" as="geometry" />
        </mxCell>
        <mxCell id="gAx6BKsKjrXT4q-F_Ysd-4" value="- Id : int" style="text;strokeColor=none;fillColor=none;align=left;verticalAlign=middle;spacingLeft=4;spacingRight=4;overflow=hidden;points=[[0,0.5],[1,0.5]];portConstraint=eastwest;rotatable=0;" parent="gAx6BKsKjrXT4q-F_Ysd-1" vertex="1">
          <mxGeometry y="90" width="140" height="30" as="geometry" />
        </mxCell>
        <mxCell id="gAx6BKsKjrXT4q-F_Ysd-5" value="Ticket " style="swimlane;fontStyle=0;childLayout=stackLayout;horizontal=1;startSize=30;horizontalStack=0;resizeParent=1;resizeParentMax=0;resizeLast=0;collapsible=1;marginBottom=0;" parent="1" vertex="1">
          <mxGeometry x="344" y="50" width="140" height="90" as="geometry" />
        </mxCell>
        <mxCell id="gAx6BKsKjrXT4q-F_Ysd-6" value="- Id : int " style="text;strokeColor=none;fillColor=none;align=left;verticalAlign=middle;spacingLeft=4;spacingRight=4;overflow=hidden;points=[[0,0.5],[1,0.5]];portConstraint=eastwest;rotatable=0;" parent="gAx6BKsKjrXT4q-F_Ysd-5" vertex="1">
          <mxGeometry y="30" width="140" height="30" as="geometry" />
        </mxCell>
        <mxCell id="gAx6BKsKjrXT4q-F_Ysd-7" value="- Name : String" style="text;strokeColor=none;fillColor=none;align=left;verticalAlign=middle;spacingLeft=4;spacingRight=4;overflow=hidden;points=[[0,0.5],[1,0.5]];portConstraint=eastwest;rotatable=0;" parent="gAx6BKsKjrXT4q-F_Ysd-5" vertex="1">
          <mxGeometry y="60" width="140" height="30" as="geometry" />
        </mxCell>
        <mxCell id="gAx6BKsKjrXT4q-F_Ysd-9" value="Edição Festival" style="swimlane;fontStyle=0;childLayout=stackLayout;horizontal=1;startSize=30;horizontalStack=0;resizeParent=1;resizeParentMax=0;resizeLast=0;collapsible=1;marginBottom=0;" parent="1" vertex="1">
          <mxGeometry x="180" y="190" width="140" height="60" as="geometry" />
        </mxCell>
        <mxCell id="gAx6BKsKjrXT4q-F_Ysd-10" value="- NameF : String" style="text;strokeColor=none;fillColor=none;align=left;verticalAlign=middle;spacingLeft=4;spacingRight=4;overflow=hidden;points=[[0,0.5],[1,0.5]];portConstraint=eastwest;rotatable=0;" parent="gAx6BKsKjrXT4q-F_Ysd-9" vertex="1">
          <mxGeometry y="30" width="140" height="30" as="geometry" />
        </mxCell>
        <mxCell id="gAx6BKsKjrXT4q-F_Ysd-12" value="Pontos de interesse" style="swimlane;fontStyle=0;childLayout=stackLayout;horizontal=1;startSize=30;horizontalStack=0;resizeParent=1;resizeParentMax=0;resizeLast=0;collapsible=1;marginBottom=0;" parent="1" vertex="1">
          <mxGeometry x="10" y="390" width="140" height="90" as="geometry" />
        </mxCell>
        <mxCell id="gAx6BKsKjrXT4q-F_Ysd-13" value="- Nome  : String  " style="text;strokeColor=none;fillColor=none;align=left;verticalAlign=middle;spacingLeft=4;spacingRight=4;overflow=hidden;points=[[0,0.5],[1,0.5]];portConstraint=eastwest;rotatable=0;" parent="gAx6BKsKjrXT4q-F_Ysd-12" vertex="1">
          <mxGeometry y="30" width="140" height="30" as="geometry" />
        </mxCell>
        <mxCell id="gAx6BKsKjrXT4q-F_Ysd-14" value="- Location" style="text;strokeColor=none;fillColor=none;align=left;verticalAlign=middle;spacingLeft=4;spacingRight=4;overflow=hidden;points=[[0,0.5],[1,0.5]];portConstraint=eastwest;rotatable=0;" parent="gAx6BKsKjrXT4q-F_Ysd-12" vertex="1">
          <mxGeometry y="60" width="140" height="30" as="geometry" />
        </mxCell>
        <mxCell id="gAx6BKsKjrXT4q-F_Ysd-15" value="" style="endArrow=classic;html=1;rounded=0;entryX=0.143;entryY=1.067;entryDx=0;entryDy=0;exitX=0.879;exitY=-0.011;exitDx=0;exitDy=0;exitPerimeter=0;entryPerimeter=0;" parent="1" source="gAx6BKsKjrXT4q-F_Ysd-12" target="gAx6BKsKjrXT4q-F_Ysd-10" edge="1">
          <mxGeometry width="50" height="50" relative="1" as="geometry">
            <mxPoint x="260" y="130" as="sourcePoint" />
            <mxPoint x="320" y="80" as="targetPoint" />
            <Array as="points">
              <mxPoint x="133" y="330" />
              <mxPoint x="200" y="330" />
            </Array>
          </mxGeometry>
        </mxCell>
        <mxCell id="gAx6BKsKjrXT4q-F_Ysd-16" value="Tipo Pontos de interesse" style="swimlane;fontStyle=0;childLayout=stackLayout;horizontal=1;startSize=50;horizontalStack=0;resizeParent=1;resizeParentMax=0;resizeLast=0;collapsible=1;marginBottom=0;" parent="1" vertex="1">
          <mxGeometry x="10" y="30" width="150" height="130" as="geometry" />
        </mxCell>
        <mxCell id="gAx6BKsKjrXT4q-F_Ysd-17" value="- Palco [] : String" style="text;strokeColor=none;fillColor=none;align=left;verticalAlign=middle;spacingLeft=4;spacingRight=4;overflow=hidden;points=[[0,0.5],[1,0.5]];portConstraint=eastwest;rotatable=0;" parent="gAx6BKsKjrXT4q-F_Ysd-16" vertex="1">
          <mxGeometry y="50" width="150" height="30" as="geometry" />
        </mxCell>
        <mxCell id="gAx6BKsKjrXT4q-F_Ysd-18" value="- Restauração [] : String" style="text;strokeColor=none;fillColor=none;align=left;verticalAlign=middle;spacingLeft=4;spacingRight=4;overflow=hidden;points=[[0,0.5],[1,0.5]];portConstraint=eastwest;rotatable=0;" parent="gAx6BKsKjrXT4q-F_Ysd-16" vertex="1">
          <mxGeometry y="80" width="150" height="50" as="geometry" />
        </mxCell>
        <mxCell id="gAx6BKsKjrXT4q-F_Ysd-19" value="" style="endArrow=classic;html=1;rounded=0;entryX=0.5;entryY=0;entryDx=0;entryDy=0;exitX=0.487;exitY=1.04;exitDx=0;exitDy=0;exitPerimeter=0;" parent="1" target="gAx6BKsKjrXT4q-F_Ysd-12" edge="1" source="gAx6BKsKjrXT4q-F_Ysd-18">
          <mxGeometry width="50" height="50" relative="1" as="geometry">
            <mxPoint x="50" y="100" as="sourcePoint" />
            <mxPoint x="100" y="50" as="targetPoint" />
          </mxGeometry>
        </mxCell>
        <mxCell id="gAx6BKsKjrXT4q-F_Ysd-23" value="Artistas" style="swimlane;fontStyle=0;childLayout=stackLayout;horizontal=1;startSize=30;horizontalStack=0;resizeParent=1;resizeParentMax=0;resizeLast=0;collapsible=1;marginBottom=0;" parent="1" vertex="1">
          <mxGeometry x="220" y="560" width="140" height="90" as="geometry" />
        </mxCell>
        <mxCell id="gAx6BKsKjrXT4q-F_Ysd-24" value="- Nomes[] : String" style="text;strokeColor=none;fillColor=none;align=left;verticalAlign=middle;spacingLeft=4;spacingRight=4;overflow=hidden;points=[[0,0.5],[1,0.5]];portConstraint=eastwest;rotatable=0;" parent="gAx6BKsKjrXT4q-F_Ysd-23" vertex="1">
          <mxGeometry y="30" width="140" height="30" as="geometry" />
        </mxCell>
        <mxCell id="gAx6BKsKjrXT4q-F_Ysd-25" value="- Musicas[] : String" style="text;strokeColor=none;fillColor=none;align=left;verticalAlign=middle;spacingLeft=4;spacingRight=4;overflow=hidden;points=[[0,0.5],[1,0.5]];portConstraint=eastwest;rotatable=0;" parent="gAx6BKsKjrXT4q-F_Ysd-23" vertex="1">
          <mxGeometry y="60" width="140" height="30" as="geometry" />
        </mxCell>
        <mxCell id="gAx6BKsKjrXT4q-F_Ysd-26" value="" style="endArrow=classic;html=1;rounded=0;exitX=0.51;exitY=1.08;exitDx=0;exitDy=0;exitPerimeter=0;entryX=0.5;entryY=0;entryDx=0;entryDy=0;" parent="1" source="gAx6BKsKjrXT4q-F_Ysd-10" edge="1" target="gAx6BKsKjrXT4q-F_Ysd-55">
          <mxGeometry width="50" height="50" relative="1" as="geometry">
            <mxPoint x="295" y="370" as="sourcePoint" />
            <mxPoint x="341" y="300" as="targetPoint" />
            <Array as="points">
              <mxPoint x="292" y="330" />
            </Array>
          </mxGeometry>
        </mxCell>
        <mxCell id="gAx6BKsKjrXT4q-F_Ysd-27" value="Check In" style="swimlane;fontStyle=0;childLayout=stackLayout;horizontal=1;startSize=30;horizontalStack=0;resizeParent=1;resizeParentMax=0;resizeLast=0;collapsible=1;marginBottom=0;" parent="1" vertex="1">
          <mxGeometry x="344" y="920" width="140" height="120" as="geometry" />
        </mxCell>
        <mxCell id="gAx6BKsKjrXT4q-F_Ysd-28" value="Item 1" style="text;strokeColor=none;fillColor=none;align=left;verticalAlign=middle;spacingLeft=4;spacingRight=4;overflow=hidden;points=[[0,0.5],[1,0.5]];portConstraint=eastwest;rotatable=0;" parent="gAx6BKsKjrXT4q-F_Ysd-27" vertex="1">
          <mxGeometry y="30" width="140" height="30" as="geometry" />
        </mxCell>
        <mxCell id="gAx6BKsKjrXT4q-F_Ysd-29" value="Item 2" style="text;strokeColor=none;fillColor=none;align=left;verticalAlign=middle;spacingLeft=4;spacingRight=4;overflow=hidden;points=[[0,0.5],[1,0.5]];portConstraint=eastwest;rotatable=0;" parent="gAx6BKsKjrXT4q-F_Ysd-27" vertex="1">
          <mxGeometry y="60" width="140" height="30" as="geometry" />
        </mxCell>
        <mxCell id="gAx6BKsKjrXT4q-F_Ysd-30" value="Item 3" style="text;strokeColor=none;fillColor=none;align=left;verticalAlign=middle;spacingLeft=4;spacingRight=4;overflow=hidden;points=[[0,0.5],[1,0.5]];portConstraint=eastwest;rotatable=0;" parent="gAx6BKsKjrXT4q-F_Ysd-27" vertex="1">
          <mxGeometry y="90" width="140" height="30" as="geometry" />
        </mxCell>
        <mxCell id="gAx6BKsKjrXT4q-F_Ysd-31" value="" style="endArrow=classic;html=1;rounded=0;exitX=0.49;exitY=1.04;exitDx=0;exitDy=0;exitPerimeter=0;entryX=0;entryY=0.5;entryDx=0;entryDy=0;" parent="1" source="gAx6BKsKjrXT4q-F_Ysd-14" target="gAx6BKsKjrXT4q-F_Ysd-29" edge="1">
          <mxGeometry width="50" height="50" relative="1" as="geometry">
            <mxPoint x="160" y="240" as="sourcePoint" />
            <mxPoint x="210" y="190" as="targetPoint" />
            <Array as="points">
              <mxPoint x="79" y="540" />
              <mxPoint x="120" y="730" />
            </Array>
          </mxGeometry>
        </mxCell>
        <mxCell id="gAx6BKsKjrXT4q-F_Ysd-32" value="" style="endArrow=classic;html=1;rounded=0;entryX=0.885;entryY=1.071;entryDx=0;entryDy=0;entryPerimeter=0;exitX=1;exitY=0.5;exitDx=0;exitDy=0;" parent="1" target="gAx6BKsKjrXT4q-F_Ysd-4" edge="1" source="gAx6BKsKjrXT4q-F_Ysd-29">
          <mxGeometry width="50" height="50" relative="1" as="geometry">
            <mxPoint x="600" y="520" as="sourcePoint" />
            <mxPoint x="650" y="470" as="targetPoint" />
            <Array as="points">
              <mxPoint x="650" y="995" />
              <mxPoint x="650" y="680" />
              <mxPoint x="650" y="580" />
              <mxPoint x="524" y="580" />
            </Array>
          </mxGeometry>
        </mxCell>
        <mxCell id="gAx6BKsKjrXT4q-F_Ysd-33" value="Relationship List&#xa;" style="swimlane;fontStyle=0;childLayout=stackLayout;horizontal=1;startSize=30;horizontalStack=0;resizeParent=1;resizeParentMax=0;resizeLast=0;collapsible=1;marginBottom=0;" parent="1" vertex="1">
          <mxGeometry x="670" y="220" width="140" height="120" as="geometry" />
        </mxCell>
        <mxCell id="gAx6BKsKjrXT4q-F_Ysd-34" value="- Friends []: String " style="text;strokeColor=none;fillColor=none;align=left;verticalAlign=middle;spacingLeft=4;spacingRight=4;overflow=hidden;points=[[0,0.5],[1,0.5]];portConstraint=eastwest;rotatable=0;" parent="gAx6BKsKjrXT4q-F_Ysd-33" vertex="1">
          <mxGeometry y="30" width="140" height="30" as="geometry" />
        </mxCell>
        <mxCell id="gAx6BKsKjrXT4q-F_Ysd-35" value="Item 2" style="text;strokeColor=none;fillColor=none;align=left;verticalAlign=middle;spacingLeft=4;spacingRight=4;overflow=hidden;points=[[0,0.5],[1,0.5]];portConstraint=eastwest;rotatable=0;" parent="gAx6BKsKjrXT4q-F_Ysd-33" vertex="1">
          <mxGeometry y="60" width="140" height="30" as="geometry" />
        </mxCell>
        <mxCell id="gAx6BKsKjrXT4q-F_Ysd-36" value="Item 3" style="text;strokeColor=none;fillColor=none;align=left;verticalAlign=middle;spacingLeft=4;spacingRight=4;overflow=hidden;points=[[0,0.5],[1,0.5]];portConstraint=eastwest;rotatable=0;" parent="gAx6BKsKjrXT4q-F_Ysd-33" vertex="1">
          <mxGeometry y="90" width="140" height="30" as="geometry" />
        </mxCell>
        <mxCell id="gAx6BKsKjrXT4q-F_Ysd-38" value="Tipo RL" style="swimlane;fontStyle=0;childLayout=stackLayout;horizontal=1;startSize=30;horizontalStack=0;resizeParent=1;resizeParentMax=0;resizeLast=0;collapsible=1;marginBottom=0;" parent="1" vertex="1">
          <mxGeometry x="670" y="30" width="140" height="120" as="geometry" />
        </mxCell>
        <mxCell id="gAx6BKsKjrXT4q-F_Ysd-39" value="FriendsList[] : String " style="text;strokeColor=none;fillColor=none;align=left;verticalAlign=middle;spacingLeft=4;spacingRight=4;overflow=hidden;points=[[0,0.5],[1,0.5]];portConstraint=eastwest;rotatable=0;" parent="gAx6BKsKjrXT4q-F_Ysd-38" vertex="1">
          <mxGeometry y="30" width="140" height="30" as="geometry" />
        </mxCell>
        <mxCell id="gAx6BKsKjrXT4q-F_Ysd-40" value="BlockList[] : " style="text;strokeColor=none;fillColor=none;align=left;verticalAlign=middle;spacingLeft=4;spacingRight=4;overflow=hidden;points=[[0,0.5],[1,0.5]];portConstraint=eastwest;rotatable=0;" parent="gAx6BKsKjrXT4q-F_Ysd-38" vertex="1">
          <mxGeometry y="60" width="140" height="30" as="geometry" />
        </mxCell>
        <mxCell id="gAx6BKsKjrXT4q-F_Ysd-41" value="Item 3" style="text;strokeColor=none;fillColor=none;align=left;verticalAlign=middle;spacingLeft=4;spacingRight=4;overflow=hidden;points=[[0,0.5],[1,0.5]];portConstraint=eastwest;rotatable=0;" parent="gAx6BKsKjrXT4q-F_Ysd-38" vertex="1">
          <mxGeometry y="90" width="140" height="30" as="geometry" />
        </mxCell>
        <mxCell id="gAx6BKsKjrXT4q-F_Ysd-42" value="ESTADO" style="swimlane;fontStyle=0;childLayout=stackLayout;horizontal=1;startSize=30;horizontalStack=0;resizeParent=1;resizeParentMax=0;resizeLast=0;collapsible=1;marginBottom=0;" parent="1" vertex="1">
          <mxGeometry x="680" y="465" width="140" height="120" as="geometry" />
        </mxCell>
        <mxCell id="gAx6BKsKjrXT4q-F_Ysd-43" value="- Aceite : Boolean" style="text;strokeColor=none;fillColor=none;align=left;verticalAlign=middle;spacingLeft=4;spacingRight=4;overflow=hidden;points=[[0,0.5],[1,0.5]];portConstraint=eastwest;rotatable=0;" parent="gAx6BKsKjrXT4q-F_Ysd-42" vertex="1">
          <mxGeometry y="30" width="140" height="30" as="geometry" />
        </mxCell>
        <mxCell id="gAx6BKsKjrXT4q-F_Ysd-44" value="- Pendente : Boolean " style="text;strokeColor=none;fillColor=none;align=left;verticalAlign=middle;spacingLeft=4;spacingRight=4;overflow=hidden;points=[[0,0.5],[1,0.5]];portConstraint=eastwest;rotatable=0;" parent="gAx6BKsKjrXT4q-F_Ysd-42" vertex="1">
          <mxGeometry y="60" width="140" height="30" as="geometry" />
        </mxCell>
        <mxCell id="gAx6BKsKjrXT4q-F_Ysd-45" value="- Recusado : Boolean" style="text;strokeColor=none;fillColor=none;align=left;verticalAlign=middle;spacingLeft=4;spacingRight=4;overflow=hidden;points=[[0,0.5],[1,0.5]];portConstraint=eastwest;rotatable=0;" parent="gAx6BKsKjrXT4q-F_Ysd-42" vertex="1">
          <mxGeometry y="90" width="140" height="30" as="geometry" />
        </mxCell>
        <mxCell id="gAx6BKsKjrXT4q-F_Ysd-47" value="" style="endArrow=classic;html=1;rounded=0;entryX=0.564;entryY=1.067;entryDx=0;entryDy=0;entryPerimeter=0;exitX=0.5;exitY=0;exitDx=0;exitDy=0;" parent="1" target="gAx6BKsKjrXT4q-F_Ysd-36" edge="1" source="gAx6BKsKjrXT4q-F_Ysd-42">
          <mxGeometry width="50" height="50" relative="1" as="geometry">
            <mxPoint x="910" y="340" as="sourcePoint" />
            <mxPoint x="960" y="290" as="targetPoint" />
          </mxGeometry>
        </mxCell>
        <mxCell id="gAx6BKsKjrXT4q-F_Ysd-48" value="" style="endArrow=classic;html=1;rounded=0;entryX=0.5;entryY=0;entryDx=0;entryDy=0;exitX=0.499;exitY=1.02;exitDx=0;exitDy=0;exitPerimeter=0;" parent="1" source="gAx6BKsKjrXT4q-F_Ysd-41" target="gAx6BKsKjrXT4q-F_Ysd-33" edge="1">
          <mxGeometry width="50" height="50" relative="1" as="geometry">
            <mxPoint x="880" y="140" as="sourcePoint" />
            <mxPoint x="930" y="90" as="targetPoint" />
          </mxGeometry>
        </mxCell>
        <mxCell id="gAx6BKsKjrXT4q-F_Ysd-49" value="" style="endArrow=classic;html=1;rounded=0;entryX=-0.007;entryY=0.3;entryDx=0;entryDy=0;entryPerimeter=0;exitX=1;exitY=0.5;exitDx=0;exitDy=0;" parent="1" target="gAx6BKsKjrXT4q-F_Ysd-35" edge="1" source="gAx6BKsKjrXT4q-F_Ysd-3">
          <mxGeometry width="50" height="50" relative="1" as="geometry">
            <mxPoint x="790" y="220" as="sourcePoint" />
            <mxPoint x="840" y="170" as="targetPoint" />
            <Array as="points">
              <mxPoint x="620" y="405" />
              <mxPoint x="620" y="289" />
            </Array>
          </mxGeometry>
        </mxCell>
        <mxCell id="gAx6BKsKjrXT4q-F_Ysd-50" value="" style="endArrow=classic;html=1;rounded=0;exitX=0.9;exitY=0.017;exitDx=0;exitDy=0;entryX=1;entryY=0.5;entryDx=0;entryDy=0;exitPerimeter=0;" parent="1" edge="1" target="gAx6BKsKjrXT4q-F_Ysd-6" source="gAx6BKsKjrXT4q-F_Ysd-1">
          <mxGeometry width="50" height="50" relative="1" as="geometry">
            <mxPoint x="420" y="270.5" as="sourcePoint" />
            <mxPoint x="390" y="270" as="targetPoint" />
            <Array as="points">
              <mxPoint x="530" y="95" />
            </Array>
          </mxGeometry>
        </mxCell>
        <mxCell id="gAx6BKsKjrXT4q-F_Ysd-51" value="PALCO" style="swimlane;fontStyle=0;childLayout=stackLayout;horizontal=1;startSize=30;horizontalStack=0;resizeParent=1;resizeParentMax=0;resizeLast=0;collapsible=1;marginBottom=0;" parent="1" vertex="1">
          <mxGeometry x="390" y="640" width="140" height="120" as="geometry" />
        </mxCell>
        <mxCell id="gAx6BKsKjrXT4q-F_Ysd-52" value="- NomePalco : String" style="text;strokeColor=none;fillColor=none;align=left;verticalAlign=middle;spacingLeft=4;spacingRight=4;overflow=hidden;points=[[0,0.5],[1,0.5]];portConstraint=eastwest;rotatable=0;" parent="gAx6BKsKjrXT4q-F_Ysd-51" vertex="1">
          <mxGeometry y="30" width="140" height="30" as="geometry" />
        </mxCell>
        <mxCell id="gAx6BKsKjrXT4q-F_Ysd-53" value="- Atuações [] : String" style="text;strokeColor=none;fillColor=none;align=left;verticalAlign=middle;spacingLeft=4;spacingRight=4;overflow=hidden;points=[[0,0.5],[1,0.5]];portConstraint=eastwest;rotatable=0;" parent="gAx6BKsKjrXT4q-F_Ysd-51" vertex="1">
          <mxGeometry y="60" width="140" height="30" as="geometry" />
        </mxCell>
        <mxCell id="gAx6BKsKjrXT4q-F_Ysd-54" value="- Horarios [] : int " style="text;strokeColor=none;fillColor=none;align=left;verticalAlign=middle;spacingLeft=4;spacingRight=4;overflow=hidden;points=[[0,0.5],[1,0.5]];portConstraint=eastwest;rotatable=0;" parent="gAx6BKsKjrXT4q-F_Ysd-51" vertex="1">
          <mxGeometry y="90" width="140" height="30" as="geometry" />
        </mxCell>
        <mxCell id="gAx6BKsKjrXT4q-F_Ysd-55" value="Edição F / Artistas" style="swimlane;fontStyle=0;childLayout=stackLayout;horizontal=1;startSize=30;horizontalStack=0;resizeParent=1;resizeParentMax=0;resizeLast=0;collapsible=1;marginBottom=0;" parent="1" vertex="1">
          <mxGeometry x="239" y="420" width="105" height="60" as="geometry" />
        </mxCell>
        <mxCell id="gAx6BKsKjrXT4q-F_Ysd-59" value="" style="endArrow=classic;html=1;rounded=0;entryX=0.5;entryY=0;entryDx=0;entryDy=0;exitX=0.5;exitY=1;exitDx=0;exitDy=0;" parent="1" target="gAx6BKsKjrXT4q-F_Ysd-23" edge="1" source="gAx6BKsKjrXT4q-F_Ysd-55">
          <mxGeometry width="50" height="50" relative="1" as="geometry">
            <mxPoint x="335" y="400" as="sourcePoint" />
            <mxPoint x="336.1300000000001" y="353.3000000000002" as="targetPoint" />
            <Array as="points" />
          </mxGeometry>
        </mxCell>
        <mxCell id="gAx6BKsKjrXT4q-F_Ysd-60" value="" style="endArrow=classic;html=1;rounded=0;exitX=0.443;exitY=1.067;exitDx=0;exitDy=0;exitPerimeter=0;" parent="1" target="gAx6BKsKjrXT4q-F_Ysd-51" edge="1" source="gAx6BKsKjrXT4q-F_Ysd-4">
          <mxGeometry width="50" height="50" relative="1" as="geometry">
            <mxPoint x="380" y="320" as="sourcePoint" />
            <mxPoint x="435" y="270" as="targetPoint" />
          </mxGeometry>
        </mxCell>
        <mxCell id="seag0Rl0sHFMNEk1R7KC-7" value="" style="endArrow=classic;html=1;rounded=0;exitX=1.007;exitY=0.033;exitDx=0;exitDy=0;exitPerimeter=0;entryX=0.493;entryY=1.167;entryDx=0;entryDy=0;entryPerimeter=0;" edge="1" parent="1" source="gAx6BKsKjrXT4q-F_Ysd-10" target="gAx6BKsKjrXT4q-F_Ysd-7">
          <mxGeometry width="50" height="50" relative="1" as="geometry">
            <mxPoint x="310" y="285" as="sourcePoint" />
            <mxPoint x="414" y="221" as="targetPoint" />
            <Array as="points">
              <mxPoint x="413" y="221" />
            </Array>
          </mxGeometry>
        </mxCell>
      </root>
    </mxGraphModel>
  </diagram>
</mxfile>
